<svg width="218" height="218" viewBox="0 0 218 218" fill="none" xmlns="http://www.w3.org/2000/svg">
<path fill-rule="evenodd" clip-rule="evenodd" d="M47.4999 180.574C47.4999 186.884 52.6076 192 58.9087 192H94.6676C100.969 192 106.076 186.884 106.076 180.574V144.084C106.076 141.095 108.497 138.671 111.482 138.671H132.805C139.106 138.671 144.213 133.555 144.213 127.245V85.3428H159.09C165.392 85.3428 170.5 80.2262 170.5 73.916V37.4261C170.5 31.1154 165.392 26.0003 159.09 26.0003H58.9087C52.6076 26.0003 47.4999 31.1157 47.4999 37.4261V180.574ZM138.209 85.3428H87.3668C81.0645 85.3428 75.9569 80.2262 75.9569 73.916V64.0906C75.9569 57.7799 81.0649 52.6648 87.3668 52.6648H132.805C139.106 52.6648 144.213 57.7801 144.213 64.0906V79.3292H159.09C162.076 79.3292 164.495 76.9055 164.495 73.916V37.4261C164.495 34.4371 162.076 32.0139 159.09 32.0139H58.9087C55.9239 32.0139 53.5045 34.4369 53.5045 37.4261V180.574C53.5045 183.563 55.9239 185.986 58.9087 185.986H94.6676C97.6524 185.986 100.072 183.563 100.072 180.574V144.084C100.072 137.774 105.181 132.657 111.482 132.657H132.805C135.789 132.657 138.209 130.234 138.209 127.245V85.3428ZM138.209 79.3292V64.0906C138.209 61.1013 135.789 58.6783 132.805 58.6783H87.3668C84.3807 58.6783 81.9616 61.1016 81.9616 64.0906V73.916C81.9616 76.9055 84.3812 79.3292 87.3668 79.3292H138.209Z" fill="black" stroke="black" stroke-width="2" stroke-miterlimit="10"/>
</svg>
