<svg width="48" height="48" viewBox="0 0 48 48" fill="none" xmlns="http://www.w3.org/2000/svg">
<g clip-path="url(#clip0_1_378)">
<path d="M43.8 0H4.2C1.8804 0 0 1.8804 0 4.2V43.8C0 46.1196 1.8804 48 4.2 48H43.8C46.1196 48 48 46.1196 48 43.8V4.2C48 1.8804 46.1196 0 43.8 0Z" fill="#19364B"/>
<mask id="mask0_1_378" style="mask-type:luminance" maskUnits="userSpaceOnUse" x="6" y="6" width="36" height="36">
<path d="M41.4 6.60001H6.60001V41.4H41.4V6.60001Z" fill="white"/>
</mask>
<g mask="url(#mask0_1_378)">
<path d="M12.0967 40.8001H21.6967" stroke="#CDCBFF"/>
<path d="M26.4967 7.20013H36.0967" stroke="#CDCBFF"/>
<path d="M40.8967 12.0001V21.6001" stroke="#CDCBFF"/>
<path d="M7.29666 26.4001V36.0001" stroke="#CDCBFF"/>
<path d="M10.9826 23.9999H22.1948" stroke="#CDCBFF"/>
<path d="M37.4015 23.9999H26.1883" stroke="#CDCBFF"/>
<path d="M24.1919 25.9996V37.2093" stroke="#CDCBFF"/>
<path d="M24.1919 21.9995V10.8001" stroke="#CDCBFF"/>
<path d="M26.4964 38.4001L38.4964 26.4001" stroke="#CDCBFF"/>
<path d="M9.69643 21.6001L21.6964 9.60013" stroke="#CDCBFF"/>
</g>
</g>
<defs>
<clipPath id="clip0_1_378">
<rect width="48" height="48" fill="white"/>
</clipPath>
</defs>
</svg>
